# Blender v2.80 (sub 75) OBJ File: 'littlewitchscene.blend'
# www.blender.org
o Cylinder.040_Cylinder.042
v 0.000000 -1.338974 -8.000000
v 1.732051 -1.338974 -7.000000
v 0.000000 0.661026 -8.000000
v -1.732051 -1.338974 -7.000000
v -1.732051 -1.338974 -5.000000
v -1.732051 0.661026 -7.000000
v -1.732051 0.661026 -5.000000
v -0.000000 0.661026 -4.000000
v 1.732051 0.661026 -5.000000
v -0.000000 -1.338974 -4.000000
v 1.732051 -1.338974 -5.000000
v 1.732051 0.661026 -7.000000
vt 0.750000 0.490000
vt 0.957846 0.370000
vt 0.957846 0.130000
vt 0.750000 0.010000
vt 0.542154 0.130000
vt 0.542154 0.370000
vt 1.000000 0.500000
vt 1.000000 1.000000
vt 0.833333 1.000000
vt 0.833333 0.500000
vt 0.166667 0.500000
vt 0.166667 1.000000
vt -0.000000 1.000000
vt -0.000000 0.500000
vt 0.333333 0.500000
vt 0.333333 1.000000
vt 0.457846 0.370000
vt 0.250000 0.490000
vt 0.042154 0.370000
vt 0.042154 0.130000
vt 0.250000 0.010000
vt 0.457846 0.130000
vt 0.500000 0.500000
vt 0.500000 1.000000
vt 0.666667 0.500000
vt 0.666667 1.000000
vn 0.0000 -1.0000 0.0000
vn 0.5000 0.0000 -0.8660
vn -0.5000 0.0000 -0.8660
vn -1.0000 0.0000 0.0000
vn 0.0000 1.0000 0.0000
vn -0.5000 0.0000 0.8660
vn 0.5000 0.0000 0.8660
vn 1.0000 0.0000 0.0000
s off
f 1/1/1 2/2/1 11/3/1 10/4/1 5/5/1 4/6/1
f 1/7/2 3/8/2 12/9/2 2/10/2
f 4/11/3 6/12/3 3/13/3 1/14/3
f 5/15/4 7/16/4 6/12/4 4/11/4
f 12/17/5 3/18/5 6/19/5 7/20/5 8/21/5 9/22/5
f 10/23/6 8/24/6 7/16/6 5/15/6
f 11/25/7 9/26/7 8/24/7 10/23/7
f 2/10/8 12/9/8 9/26/8 11/25/8
