# Blender v2.80 (sub 75) OBJ File: 'littlewitchscene.blend'
# www.blender.org
o bare_tree6.003_Circle.003
v 9.267785 0.661026 -8.498031
v 8.734916 0.661026 -8.634574
v 8.556283 0.661026 -8.396419
v 8.598372 0.661026 -8.101705
v 8.836528 0.661026 -7.923072
v 9.029630 0.661026 -8.676663
v 9.131242 0.661026 -7.965161
v 9.309875 0.661026 -8.203317
v 9.173850 1.658307 -8.429681
v 9.006505 1.658307 -8.555201
v 8.799418 1.658306 -8.525625
v 8.673899 1.658306 -8.358280
v 8.703473 1.658306 -8.151194
v 8.870818 1.658306 -8.025674
v 9.077905 1.658306 -8.055248
v 9.203424 1.658307 -8.222593
v 9.440654 3.170665 -7.836228
v 9.317854 3.170665 -7.928337
v 9.165892 3.170665 -7.906634
v 9.073784 3.170665 -7.783834
v 9.095486 3.170665 -7.631872
v 9.218286 3.170665 -7.539764
v 9.370249 3.170665 -7.561466
v 9.462357 3.170665 -7.684266
v 9.301761 4.036436 -7.945034
v 9.218199 4.036436 -8.007711
v 9.114792 4.036436 -7.992943
v 9.052115 4.036436 -7.909381
v 9.066883 4.036436 -7.805974
v 9.150445 4.036436 -7.743298
v 9.253852 4.036436 -7.758065
v 9.316528 4.036436 -7.841627
v 8.707236 5.384408 -8.892099
v 8.641490 5.384408 -8.941414
v 8.560129 5.384408 -8.929794
v 8.510815 5.384408 -8.864048
v 8.522433 5.384408 -8.782687
v 8.588181 5.384408 -8.733373
v 8.669541 5.384408 -8.744991
v 8.718856 5.384408 -8.810739
v 8.593536 6.228261 -9.028557
v 8.545129 6.228261 -9.064865
v 8.485225 6.228261 -9.056311
v 8.448916 6.228261 -9.007902
v 8.457471 6.228261 -8.947999
v 8.505878 6.228261 -8.911690
v 8.565783 6.228261 -8.920245
v 8.602092 6.228261 -8.968653
v 8.916327 7.192663 -8.328157
v 9.412218 3.347916 -7.858504
v 9.069347 3.347916 -7.809538
v 9.155430 3.347916 -7.924304
v 9.204396 3.347916 -7.581434
v 9.089630 3.347916 -7.667516
v 9.432501 3.347916 -7.716483
v 9.346418 3.347916 -7.601716
v 9.297452 3.347916 -7.944587
v 8.580872 3.762458 -9.173134
v 8.428909 3.762458 -9.151432
v 8.418447 3.939709 -9.169102
v 8.560470 3.939709 -9.189384
v 8.186748 4.547774 -9.901006
v 8.095430 4.547774 -9.969500
v 7.982426 4.547774 -9.953362
v 7.974647 4.679582 -9.966501
v 8.080258 4.679582 -9.981584
v 7.841587 5.294222 -10.329889
v 9.596359 3.778939 -5.851587
v 9.454338 3.778939 -5.831305
v 9.620190 3.601688 -5.811337
v 9.468227 3.601688 -5.789635
v 9.738869 4.472664 -5.610882
v 9.596847 4.472664 -5.590600
v 9.762699 4.295413 -5.570632
v 9.610736 4.295413 -5.548930
v 9.938491 5.908766 -5.211636
v 9.861949 5.908766 -5.200705
v 9.951334 5.813238 -5.189943
v 9.869434 5.813238 -5.178247
v 10.184620 6.062406 -4.723351
v 9.191092 4.181221 -7.864070
v 9.055217 4.181221 -8.093570
v 9.156255 4.181221 -8.107999
v 9.252333 4.181221 -7.945719
v 9.008404 4.181221 -7.910882
v 9.090053 4.181221 -7.849641
v 8.993975 4.181221 -8.011921
v 9.237904 4.181221 -8.046758
v 8.383415 4.305379 -7.571932
v 8.427071 4.322412 -7.427174
v 8.388211 4.479676 -7.527913
v 8.354161 4.467196 -7.633120
v 8.003940 4.981269 -7.344526
v 9.850449 4.247419 -8.299833
v 9.914644 4.102634 -8.195742
v 9.899877 4.102634 -8.299149
v 9.836020 4.247419 -8.400871
vt 0.037754 0.642393
vt 0.037808 0.642613
vt 0.037804 0.642601
vt 0.037806 0.642419
vt 0.037860 0.642388
vt 0.037805 0.642565
vt 0.037809 0.642527
vt 0.037892 0.642305
vt 0.037881 0.642187
vt 0.037809 0.642506
vt 0.037814 0.642513
vt 0.037808 0.642048
vt 0.037724 0.642314
vt 0.037816 0.642591
vt 0.037817 0.642550
vt 0.037736 0.642191
vt 0.037813 0.643985
vt 0.037810 0.643997
vt 0.037811 0.644013
vt 0.037814 0.644021
vt 0.037819 0.644015
vt 0.037822 0.643997
vt 0.037818 0.643982
vt 0.037810 0.643979
vt 0.037814 0.644030
vt 0.037810 0.644541
vt 0.037812 0.644530
vt 0.037815 0.644031
vt 0.037819 0.644029
vt 0.037815 0.644546
vt 0.037827 0.644590
vt 0.037819 0.644030
vt 0.037815 0.644031
vt 0.037838 0.644627
vt 0.037824 0.644635
vt 0.037809 0.644027
vt 0.037814 0.644026
vt 0.037810 0.644602
vt 0.037803 0.644570
vt 0.037813 0.644028
vt 0.037817 0.644789
vt 0.037834 0.650291
vt 0.037830 0.650249
vt 0.037769 0.644745
vt 0.037808 0.644543
vt 0.037851 0.650035
vt 0.037833 0.649990
vt 0.037818 0.644514
vt 0.037830 0.644552
vt 0.037816 0.650035
vt 0.037824 0.650143
vt 0.037849 0.644638
vt 0.037858 0.644721
vt 0.037838 0.650248
vt 0.037843 0.650144
vt 0.037782 0.644622
vt 0.037860 0.652546
vt 0.037887 0.652757
vt 0.037842 0.652846
vt 0.037796 0.652757
vt 0.037823 0.652547
vt 0.037857 0.652346
vt 0.037840 0.652267
vt 0.037824 0.652346
vt 0.037892 0.668586
vt 0.037808 0.644059
vt 0.037808 0.644060
vt 0.037818 0.644024
vt 0.037818 0.644024
vt 0.037807 0.644061
vt 0.037807 0.644061
vt 0.037808 0.644059
vt 0.037808 0.644058
vt 0.037807 0.644061
vt 0.037807 0.644062
vt 0.037807 0.644061
vt 0.037818 0.644024
vt 0.037818 0.644024
vt 0.037818 0.644024
vt 0.037818 0.644024
vt 0.037940 0.642048
vt 0.037940 0.642550
vt 0.037893 0.642084
vt 0.037818 0.644024
vt 0.037818 0.644024
vt 0.037818 0.644024
vt 0.037818 0.644024
vt 0.037818 0.644024
vt 0.037818 0.644024
vt 0.037818 0.644024
vt 0.037865 0.644651
vt 0.037864 0.644651
vt 0.037775 0.644582
vt 0.037778 0.644581
vt 0.037867 0.644649
vt 0.037862 0.644653
vt 0.037862 0.644652
vt 0.037781 0.644581
vt 0.037776 0.644581
vn 0.1407 0.0965 0.9853
vn -0.9839 0.1107 0.1405
vn -0.1404 0.1165 -0.9832
vn 0.7962 0.0965 0.5972
vn -0.5969 0.1024 0.7958
vn -0.7945 0.1165 -0.5959
vn 0.5963 0.1107 -0.7951
vn 0.9848 0.1024 -0.1406
vn 0.5875 0.2037 -0.7832
vn 0.9830 -0.1183 -0.1404
vn 0.1334 -0.3308 0.9342
vn -0.9692 0.2037 0.1384
vn -0.1294 0.4023 -0.9063
vn 0.7549 -0.3308 0.5662
vn -0.5958 -0.1183 0.7944
vn -0.7324 0.4023 -0.5493
vn 0.7772 0.2369 0.5830
vn -0.5942 0.1397 0.7921
vn -0.5941 0.1397 0.7921
vn -0.7954 -0.1064 -0.5966
vn 0.6000 -0.0043 -0.8000
vn 0.9803 0.1397 -0.1400
vn 0.1373 0.2369 0.9618
vn -0.9899 -0.0043 0.1414
vn -0.1406 -0.1064 -0.9843
vn -0.1133 -0.5980 -0.7934
vn -0.1133 -0.5981 -0.7934
vn 0.6289 0.6180 0.4717
vn -0.5686 0.3196 0.7580
vn -0.6411 -0.5981 -0.4809
vn -0.6411 -0.5980 -0.4809
vn 0.5751 -0.2851 -0.7668
vn 0.9380 0.3196 -0.1340
vn 0.1111 0.6180 0.7783
vn -0.9489 -0.2851 0.1355
vn 0.9840 0.1099 -0.1405
vn 0.1380 0.2176 0.9662
vn -0.9888 -0.0485 0.1412
vn -0.1396 -0.1589 -0.9774
vn 0.7808 0.2176 0.5857
vn -0.5964 0.1099 0.7951
vn -0.7898 -0.1589 -0.5924
vn 0.5993 -0.0485 -0.7990
vn -0.6214 0.6297 -0.4661
vn 0.5609 0.3553 -0.7478
vn 0.9650 -0.2229 -0.1378
vn 0.1181 -0.5503 0.8265
vn -0.9253 0.3553 0.1321
vn -0.1098 0.6297 -0.7690
vn 0.6679 -0.5504 0.5010
vn -0.5850 -0.2229 0.7798
vn 0.0572 0.9144 0.4008
vn -0.0335 0.9715 -0.2345
vn -0.8751 -0.0034 0.4839
vn -0.8605 -0.0000 0.5095
vn 0.8705 0.0554 -0.4891
vn 0.8754 0.0567 -0.4801
vn 0.8715 0.0556 -0.4873
vn -0.0572 -0.9144 -0.4008
vn 0.1204 0.5244 0.8429
vn 0.8765 0.0571 -0.4780
vn 0.0927 0.7551 0.6490
vn -0.0955 -0.7373 -0.6688
vn 0.1325 -0.3491 0.9277
vn -0.1251 -0.4656 -0.8761
vn -0.9520 -0.0258 0.3050
vn 0.8656 0.0540 -0.4979
vn -0.5903 0.1792 0.7870
vn 0.9820 0.0949 -0.1636
vn 0.0335 -0.9715 0.2345
vn -0.9876 -0.0418 0.1513
vn -0.8869 0.0387 0.4604
vn -0.1325 0.3491 -0.9277
vn -0.8984 0.0326 0.4380
vn 0.8605 0.0000 -0.5095
vn 0.0636 -0.8932 0.4452
vn 0.8794 0.0101 -0.4761
vn 0.1366 -0.2569 0.9567
vn -0.1356 0.2828 -0.9495
vn -0.0402 0.9587 -0.2814
vn -0.8361 0.0626 0.5450
vn 0.8907 0.0166 -0.4542
vn 0.3470 0.9277 -0.1377
vn -0.3396 -0.6364 -0.6926
vn 0.6997 0.6469 -0.3032
vn -0.5693 -0.5076 -0.6467
vn -0.3208 -0.9368 0.1398
vn 0.6020 0.5728 0.5563
vn 0.1015 -0.9947 -0.0145
vn -0.8363 -0.3196 -0.4455
vn 0.7907 0.4566 0.4078
vn -0.7850 -0.5418 0.3005
vn 0.3360 0.6435 0.6878
vn -0.1015 0.9947 0.0145
s 1
f 7/1/1 15/2/1 14/3/1 5/4/1
f 4/5/2 13/6/2 12/7/2 3/8/2
f 2/9/3 11/10/3 10/11/3 6/12/3
f 8/13/4 16/14/4 15/2/4 7/1/4
f 5/4/5 14/3/5 13/6/5 4/5/5
f 3/8/6 12/7/6 11/10/6 2/9/6
f 6/12/7 10/11/7 9/15/7 1/16/7
f 1/16/8 9/15/8 16/14/8 8/13/8
f 10/11/9 18/17/9 17/18/9 9/15/9
f 9/15/10 17/18/10 24/19/10 16/14/10
f 15/2/11 23/20/11 22/21/11 14/3/11
f 13/6/12 21/22/12 20/23/12 12/7/12
f 11/10/13 19/24/13 18/17/13 10/11/13
f 16/14/14 24/19/14 23/20/14 15/2/14
f 14/3/15 22/21/15 21/22/15 13/6/15
f 12/7/16 20/23/16 19/24/16 11/10/16
f 55/25/17 32/26/17 31/27/17 56/28/17
f 53/29/18 30/30/19 29/31/19 54/32/18
f 51/33/20 28/34/20 27/35/20 52/36/20
f 57/37/21 26/38/21 25/39/21 50/40/21
f 50/40/22 25/39/22 32/26/22 55/25/22
f 56/28/23 31/27/23 30/30/23 53/29/23
f 54/32/24 29/31/24 28/34/24 51/33/24
f 52/36/25 27/35/25 26/38/25 57/37/25
f 82/41/26 35/42/27 34/43/27 83/44/26
f 84/45/28 40/46/28 39/47/28 81/48/28
f 86/49/29 38/50/29 37/51/29 85/52/29
f 87/53/30 36/54/31 35/42/31 82/41/31
f 83/44/32 34/43/32 33/55/32 88/56/32
f 88/56/33 33/55/33 40/46/33 84/45/33
f 81/48/34 39/47/34 38/50/34 86/49/34
f 85/52/35 37/51/35 36/54/35 87/53/35
f 33/55/36 41/57/36 48/58/36 40/46/36
f 39/47/37 47/59/37 46/60/37 38/50/37
f 37/51/38 45/61/38 44/62/38 36/54/38
f 35/42/39 43/63/39 42/64/39 34/43/39
f 40/46/40 48/58/40 47/59/40 39/47/40
f 38/50/41 46/60/41 45/61/41 37/51/41
f 36/54/42 44/62/42 43/63/42 35/42/42
f 34/43/43 42/64/43 41/57/43 33/55/43
f 44/62/44 49/65/44 43/63/44
f 42/64/45 49/65/45 41/57/45
f 41/57/46 49/65/46 48/58/46
f 47/59/47 49/65/47 46/60/47
f 45/61/48 49/65/48 44/62/48
f 43/63/49 49/65/49 42/64/49
f 48/58/50 49/65/50 47/59/50
f 46/60/51 49/65/51 45/61/51
f 57/37/52 61/66/52 60/67/52 52/36/52
f 21/22/24 54/32/24 51/33/24 20/23/24
f 53/29/53 69/68/53 68/69/53 56/28/53
f 17/18/22 50/40/22 55/25/22 24/19/22
f 18/17/21 57/37/21 50/40/21 17/18/21
f 20/23/20 51/33/20 52/36/20 19/24/20
f 22/21/18 53/29/18 54/32/18 21/22/18
f 24/19/17 55/25/17 56/28/17 23/20/17
f 60/67/54 65/70/54 64/71/54 59/72/54
f 52/36/55 60/67/55 59/72/55 19/24/55
f 18/17/56 58/73/57 61/66/58 57/37/56
f 19/24/59 59/72/59 58/73/59 18/17/59
f 66/74/60 67/75/60 65/70/60
f 58/73/57 63/76/61 66/74/61 61/66/58
f 61/66/62 66/74/62 65/70/62 60/67/62
f 59/72/63 64/71/63 63/76/63 58/73/63
f 70/77/64 74/78/64 75/79/64 71/80/64
f 64/71/65 67/75/65 63/76/65
f 65/70/66 67/75/66 64/71/66
f 63/76/67 67/75/67 66/74/67
f 62/81/68 67/82/68 63/83/68
f 56/28/69 68/69/69 70/77/69 23/20/69
f 23/20/70 70/77/70 71/80/70 22/21/70
f 22/21/71 71/80/71 69/68/71 53/29/71
f 75/79/72 79/84/72 77/85/72 73/86/72
f 69/68/73 73/86/73 72/87/73 68/69/73
f 71/80/74 75/79/74 73/86/74 69/68/74
f 68/69/75 72/87/75 74/78/75 70/77/75
f 78/88/76 80/89/76 79/84/76
f 72/87/77 76/90/77 78/88/77 74/78/77
f 74/78/78 78/88/78 79/84/78 75/79/78
f 73/86/79 77/85/79 76/90/79 72/87/79
f 31/27/34 81/48/34 86/49/34 30/30/34
f 77/85/80 80/89/80 76/90/80
f 79/84/81 80/89/81 77/85/81
f 76/90/82 80/89/82 78/88/82
f 87/53/83 92/91/83 91/92/83 85/52/83
f 88/56/84 97/93/84 96/94/84 25/39/84
f 26/38/32 83/44/32 88/56/32 25/39/32
f 28/34/30 87/53/30 82/41/31 27/35/30
f 30/30/29 86/49/29 85/52/29 29/31/29
f 32/26/28 84/45/28 81/48/28 31/27/28
f 27/35/26 82/41/26 83/44/26 26/38/26
f 92/91/85 93/95/85 91/92/85
f 28/34/86 89/96/86 92/91/86 87/53/86
f 29/31/87 90/97/87 89/96/87 28/34/87
f 85/52/88 91/92/88 90/97/88 29/31/88
f 25/39/89 96/94/89 95/98/89 32/26/89
f 89/96/90 93/95/90 92/91/90
f 91/92/91 93/95/91 90/97/91
f 90/97/92 93/95/92 89/96/92
f 96/94/33 97/93/33 94/99/33 95/98/33
f 32/26/93 95/98/93 94/99/93 84/45/93
f 84/45/94 94/99/94 97/93/94 88/56/94
