<?xml version="1.0" encoding="UTF-8" standalone="no"?>
<svg
   xmlns:dc="http://purl.org/dc/elements/1.1/"
   xmlns:cc="http://creativecommons.org/ns#"
   xmlns:rdf="http://www.w3.org/1999/02/22-rdf-syntax-ns#"
   xmlns:svg="http://www.w3.org/2000/svg"
   xmlns="http://www.w3.org/2000/svg"
   xmlns:sodipodi="http://sodipodi.sourceforge.net/DTD/sodipodi-0.dtd"
   xmlns:inkscape="http://www.inkscape.org/namespaces/inkscape"
   width="210mm"
   height="297mm"
   viewBox="0 0 210 297"
   version="1.1"
   id="svg8"
   inkscape:version="1.0.2-2 (e86c870879, 2021-01-15)"
   sodipodi:docname="little witch log1,1.svg">
  <defs
     id="defs2">
    <pattern
       id="EMFhbasepattern"
       patternUnits="userSpaceOnUse"
       width="6"
       height="6"
       x="0"
       y="0" />
    <pattern
       id="EMFhbasepattern-1"
       patternUnits="userSpaceOnUse"
       width="6"
       height="6"
       x="0"
       y="0" />
    <pattern
       id="EMFhbasepattern-4"
       patternUnits="userSpaceOnUse"
       width="6"
       height="6"
       x="0"
       y="0" />
  </defs>
  <sodipodi:namedview
     id="base"
     pagecolor="#ffffff"
     bordercolor="#666666"
     borderopacity="1.0"
     inkscape:pageopacity="0.0"
     inkscape:pageshadow="2"
     inkscape:zoom="0.98994949"
     inkscape:cx="513.80549"
     inkscape:cy="220.81852"
     inkscape:document-units="mm"
     inkscape:current-layer="layer1"
     inkscape:document-rotation="0"
     showgrid="false" />
  <metadata
     id="metadata5">
    <rdf:RDF>
      <cc:Work
         rdf:about="">
        <dc:format>image/svg+xml</dc:format>
        <dc:type
           rdf:resource="http://purl.org/dc/dcmitype/StillImage" />
        <dc:title></dc:title>
      </cc:Work>
    </rdf:RDF>
  </metadata>
  <g
     inkscape:label="Layer 1"
     inkscape:groupmode="layer"
     id="layer1">
    <text
       xml:space="preserve"
       style="font-style:normal;font-variant:normal;font-weight:400;font-size:42.9782px;line-height:125%;font-family:'Baskerville Old Face';text-align:start;letter-spacing:0px;word-spacing:0px;text-anchor:start;opacity:1;fill:#2b0000;fill-opacity:0.998224;stroke:none;stroke-width:2.08379"
       x="-18.157854"
       y="66.978355"
       id="text33"
       transform="matrix(0.71917417,-0.38224452,0.57625755,1.0842001,0,0)"><tspan
         sodipodi:role="line"
         x="-18.157854"
         y="66.978355"
         id="tspan31"
         style="fill:#2b0000;fill-opacity:0.998224;stroke-width:2.08379"><tspan
           dx="0 0 0 0 0 0"
           dy="0 0 0 0 0 0"
           style="font-style:normal;font-variant:normal;font-weight:400;font-size:42.9782px;font-family:'Baskerville Old Face';fill:#2b0000;fill-opacity:0.998224;stroke-width:2.08379"
           id="tspan13">Little</tspan><tspan
           dx="0"
           dy="0"
           style="font-style:normal;font-variant:normal;font-weight:400;font-size:30.6057px;font-family:Calibri;fill:#2b0000;fill-opacity:0.998224;stroke-width:2.08379"
           id="tspan29"> </tspan></tspan></text>
    <text
       xml:space="preserve"
       style="font-style:normal;font-variant:normal;font-weight:400;font-size:42.9782px;line-height:125%;font-family:'Baskerville Old Face';text-align:start;letter-spacing:0px;word-spacing:0px;text-anchor:start;fill:#2b0000;fill-opacity:0.998224;stroke:none;stroke-width:2.08379"
       x="136.70506"
       y="22.745789"
       id="text33-3"
       transform="matrix(0.78886982,0.20250134,-0.30528344,1.1892706,0,0)"><tspan
         sodipodi:role="line"
         x="136.70506"
         y="22.745789"
         id="tspan31-5"
         style="fill:#2b0000;fill-opacity:0.998224;stroke-width:2.08379"><tspan
           dx="0 0"
           dy="0 0"
           style="font-style:normal;font-variant:normal;font-weight:400;font-size:42.9782px;font-family:'Baskerville Old Face';fill:#2b0000;fill-opacity:0.998224;stroke-width:2.08379"
           id="tspan13-0">Witch</tspan><tspan
           dx="0"
           dy="0"
           style="font-style:normal;font-variant:normal;font-weight:400;font-size:30.6057px;font-family:Calibri;fill:#2b0000;fill-opacity:0.998224;stroke-width:2.08379"
           id="tspan29-9"> </tspan></tspan></text>
    <path
       style="opacity:0.970184;fill:#2b0000;fill-opacity:0.998224;stroke-width:0.265112;stroke-opacity:0;paint-order:stroke fill markers"
       id="path1015"
       d="m 85.315993,51.002586 c 0.597506,-0.500515 1.061863,-1.108967 1.476515,-1.763319 0.394221,-0.681212 0.72885,-1.400119 0.956506,-2.154885 0.158599,-0.525817 0.177903,-0.69963 0.283289,-1.241984 0.146587,-0.918109 0.230262,-1.850578 0.168545,-2.780524 -0.03848,-0.579819 -0.129773,-1.156489 -0.209489,-1.731246 -0.194138,-1.40889 -0.402244,-2.831986 -0.289301,-4.258394 0.08658,-1.093531 0.183886,-1.288796 0.45252,-2.347934 0.148436,-0.370607 0.26865,-0.753809 0.445312,-1.111822 0.667962,-1.353642 1.81873,-2.743589 3.399594,-3.007389 0.382749,-0.06387 0.776071,0.0046 1.164106,0.0068 0.251515,0.115556 0.528545,0.186869 0.754544,0.346675 0.430845,0.304655 0.854324,0.634246 1.198425,1.034291 0.837208,0.97332 1.433499,2.23207 1.780767,3.456289 0.181081,0.638363 0.234344,1.306245 0.351518,1.959369 0,0 0.406876,0.116994 0.406876,0.116994 v 0 c -0.116549,-0.657998 -0.171087,-1.33005 -0.349652,-1.973988 -0.346075,-1.248032 -0.916191,-2.486782 -1.748372,-3.491584 -0.338415,-0.408615 -0.715301,-0.810443 -1.177518,-1.07092 -0.506179,-0.285255 -1.10731,-0.352454 -1.660964,-0.52868 -0.390961,0.0051 -0.788193,-0.05473 -1.172879,0.01521 -1.578467,0.287017 -2.728897,1.665012 -3.400785,3.024941 -0.176607,0.357455 -0.296701,0.740151 -0.445053,1.110229 -0.268631,1.059397 -0.361754,1.241793 -0.451477,2.336649 -0.116263,1.418741 0.085,2.831817 0.282647,4.232974 0.07563,0.563192 0.164046,1.147744 0.203901,1.716 0.06392,0.91141 -0.0056,1.82486 -0.150376,2.725417 -0.105135,0.539771 -0.124217,0.711615 -0.282231,1.23484 -0.225195,0.745675 -0.553683,1.457168 -0.947013,2.128274 -0.412586,0.641871 -0.876951,1.238144 -1.47529,1.719857 0,0 0.435335,0.29781 0.435335,0.29781 z" />
    <path
       style="opacity:0.970184;fill:#2b0000;fill-opacity:0.998224;stroke-width:0.265112;stroke-opacity:0;paint-order:stroke fill markers"
       id="path1017"
       d="m 84.003744,52.702369 c -0.240816,-0.413726 -0.388546,-0.918059 -0.757259,-1.240877 -0.805979,-0.06432 -0.666427,0.406188 -0.836572,0.899139 -0.02381,0.03591 -0.03888,0.07952 -0.07143,0.107746 -0.02768,0.024 -0.137716,0.04761 -0.101481,0.04221 0.128918,-0.01924 0.261229,-0.03476 0.3819,-0.08404 0.05195,-0.02122 -0.112207,-0.0024 -0.168315,-0.0032 -0.300715,-0.0047 -0.17617,-0.0039 -0.520742,0.0033 -0.565349,0.0024 -0.266126,0.0076 -0.89757,-0.02056 0,0 -0.480497,0.161382 -0.480497,0.161382 v 0 c 0.624655,0.03472 0.329356,0.03047 0.885751,0.0204 0.358706,-0.008 1.204442,0.07679 1.425327,-0.173194 0.03036,-0.03436 0.04546,-0.07963 0.06819,-0.119451 0.05679,-0.17493 0.09153,-0.351031 0.137877,-0.528643 0.01363,-0.05223 0.09786,-0.138367 0.04654,-0.155112 -0.143965,-0.04697 -0.302342,0.02474 -0.453753,0.02225 -0.02772,-5.29e-4 0.0521,-0.01894 0.07815,-0.02842 0.383675,0.285165 0.517424,0.804855 0.74786,1.204203 0,0 0.516025,-0.107106 0.516025,-0.107106 z" />
    <path
       style="opacity:0.970184;fill:#2b0000;fill-opacity:0.998224;stroke-width:0.265112;stroke-opacity:0;paint-order:stroke fill markers"
       id="path1019"
       d="m 78.410632,51.442291 c -1.50782,-0.554992 -2.899637,-1.419566 -4.177371,-2.38533 -0.524057,-0.396102 -1.021604,-0.826113 -1.532406,-1.23917 -0.560509,-0.534879 -1.152837,-1.038289 -1.681527,-1.60464 -2.987633,-3.200432 -5.391902,-7.182641 -6.545638,-11.424438 -0.334121,-1.228424 -0.475451,-2.501318 -0.713179,-3.751977 -0.130474,-5.2373 -0.225201,-2.640036 0.272774,-7.792199 0,0 -0.296568,0.119605 -0.296568,0.119605 v 0 c -0.489501,5.157798 -0.395613,2.556024 -0.269169,7.805761 0.236368,1.25317 0.37697,2.528253 0.709102,3.75951 1.134607,4.206142 3.535323,8.2527 6.473296,11.451383 0.520401,0.566579 1.10649,1.069113 1.659734,1.603672 0.504377,0.414467 0.995148,0.846076 1.513136,1.243404 1.251267,0.959802 2.619057,1.821285 4.09339,2.392698 0,0 0.494426,-0.178279 0.494426,-0.178279 z" />
    <path
       style="opacity:0.970184;fill:#2b0000;fill-opacity:0.998224;stroke-width:0.265112;stroke-opacity:0;paint-order:stroke fill markers"
       id="path1021"
       d="m 67.443352,32.399864 c 0.217408,-1.875951 0.890198,-3.724225 2.030063,-5.242528 0.335841,-0.447342 0.738576,-0.840312 1.107866,-1.260469 1.820439,-1.814094 4.233426,-2.798468 6.293149,-4.281992 1.473173,-1.061058 1.420622,-1.135675 2.585812,-2.43125 0.23554,-0.411846 0.532112,-0.794355 0.706621,-1.235538 0.36935,-0.933775 0.336518,-2.143137 -0.668764,-2.676926 -0.822859,-0.436924 -1.739395,-0.152757 -2.589548,-0.06203 -1.712924,0.985944 -0.892641,0.406399 -2.446798,1.758357 0,0 0.442968,0.059 0.442968,0.059 v 0 c 1.562362,-1.340008 0.7361,-0.76996 2.464837,-1.730192 0.229507,-0.07295 0.447701,-0.217721 0.688522,-0.218851 0.9919,-0.0047 1.844162,0.651149 1.869025,1.689095 0.02392,0.99837 -0.424958,1.488928 -0.899591,2.330133 -1.154819,1.282835 -1.098063,1.351267 -2.561852,2.403957 -2.065094,1.485117 -4.487275,2.462542 -6.310302,4.28296 -0.372372,0.424124 -0.778034,0.82119 -1.117116,1.272371 -1.145283,1.52391 -1.82476,3.369175 -2.107462,5.242067 0,0 0.51257,0.101844 0.51257,0.101844 z" />
    <path
       style="opacity:0.970184;fill:#2b0000;fill-opacity:0.998224;stroke-width:0.265112;stroke-opacity:0;paint-order:stroke fill markers"
       id="path1023"
       d="m 67.873305,37.435065 c -0.120444,-0.457759 -0.168778,-0.929688 -0.144261,-1.401707 0.03699,-0.329695 0.184904,-0.568407 0.523118,-0.615358 0.26294,0.02059 0.40014,0.01799 0.550889,-0.215823 0.07789,-0.199422 -0.01098,-0.345847 -0.196623,-0.420709 -0.126169,-0.04071 -0.152061,-0.11971 -0.161253,-0.240847 -0.02768,-0.394944 0.06958,-0.78064 0.158523,-1.161854 0.49135,-1.625614 1.344215,-3.153778 2.479392,-4.420839 0.359359,-0.401108 0.764447,-0.758769 1.146672,-1.138155 1.940245,-1.493112 0.927433,-0.783897 3.042743,-2.121479 0,0 -0.392417,-0.172813 -0.392417,-0.172813 v 0 c -2.125647,1.342088 -1.105762,0.630062 -3.063333,2.130801 -0.386995,0.382045 -0.79635,0.742696 -1.160991,1.146132 -1.145593,1.267479 -2.013506,2.791799 -2.538111,4.414327 -0.09792,0.385792 -0.202838,0.776777 -0.183073,1.178729 0.0057,0.128151 0.01474,0.244211 0.147823,0.30166 0.164353,0.05149 0.297621,0.131299 0.22212,0.32811 -0.13485,0.195177 -0.313476,0.17903 -0.533665,0.176702 -0.370538,0.08352 -0.489024,0.310546 -0.539646,0.675438 -0.02347,0.468929 0.02429,0.936943 0.139533,1.392727 0,0 0.50256,0.164958 0.50256,0.164958 z" />
    <path
       style="opacity:0.970184;fill:#2b0000;fill-opacity:0.998224;stroke-width:0.265112;stroke-opacity:0;paint-order:stroke fill markers"
       id="path1025"
       d="m 106.6727,21.982282 c 0.60721,0.117644 1.2008,0.276526 1.77921,0.495666 0.24053,0.07887 0.45996,0.209491 0.69331,0.304406 0.0513,0.01759 0.0455,0.05166 0.0571,0.110811 0.1433,0.706433 0.23274,1.421761 0.32846,2.135768 0.21568,1.647134 0.33272,3.304192 0.45774,4.95986 0,0 0.41324,0.06919 0.41324,0.06919 v 0 c -0.10522,-1.662571 -0.20433,-3.326046 -0.38887,-4.982307 -0.0799,-0.721251 -0.15097,-1.444527 -0.27945,-2.159226 -0.009,-0.05321 -0.005,-0.130666 -0.0564,-0.158821 -0.21704,-0.140568 -0.47795,-0.206397 -0.70893,-0.317921 -0.57719,-0.220046 -1.16377,-0.40363 -1.77153,-0.520085 0,0 -0.52387,0.06266 -0.52387,0.06266 z" />
    <path
       style="opacity:0.970184;fill:#2b0000;fill-opacity:0.998224;stroke-width:0.265112;stroke-opacity:0;paint-order:stroke fill markers"
       id="path1027"
       d="m 111.48377,57.953721 c 0.0589,-1.888669 -0.14965,-3.767888 -0.34861,-5.642435 0,0 -0.43138,-0.106098 -0.43138,-0.106098 v 0 c 0.18507,1.844546 0.38772,3.696409 0.29037,5.553252 0,0 0.48962,0.195281 0.48962,0.195281 z" />
    <path
       style="opacity:0.970184;fill:#2b0000;fill-opacity:0.998224;stroke-width:0.265112;stroke-opacity:0;paint-order:stroke fill markers"
       id="path1031"
       d="m 111.4098,59.57186 c 0.47032,-0.108328 0.95007,-0.163084 1.4312,-0.190585 0.17988,5.3e-4 0.38181,-0.03357 0.5447,0.06052 -0.12149,-0.09209 -0.24058,-0.187425 -0.36446,-0.276272 -0.0206,-0.01476 0.0379,0.03393 0.0539,0.05357 0.0104,0.01273 0.09,0.13638 0.0986,0.147855 0.1452,0.194336 0.37404,0.330054 0.55152,0.475236 0.23431,0.14709 0.36428,0.114784 0.49029,-0.130029 0.0526,-0.189489 -0.0473,-0.338156 -0.15999,-0.479978 -0.0977,-0.098 -0.13935,-0.211675 -0.15684,-0.345948 -0.01,-0.08529 -0.003,-0.170947 0.001,-0.256294 0.016,-0.05784 0.0994,-0.08691 0.14749,-0.118293 0.0534,-0.0392 0.10466,-0.08463 0.12237,-0.150222 -0.0274,-0.105923 -0.003,-0.194083 0.0266,-0.300218 0.48617,-1.128651 1.06053,-2.219938 1.60574,-3.321266 0.18544,-0.369041 0.37089,-0.738082 0.55633,-1.107123 0,0 -0.40473,-0.230553 -0.40473,-0.230553 v 0 c -0.18609,0.365879 -0.37219,0.731761 -0.55828,1.09764 -0.54966,1.085821 -1.13148,2.158855 -1.63652,3.265752 -0.0257,0.08114 -0.091,0.217152 -0.0338,0.300742 1.7e-4,0.04712 -0.0532,0.0821 -0.0911,0.110572 -0.065,0.04223 -0.15395,0.07737 -0.17727,0.157313 -0.007,0.08346 0.002,0.167862 0.004,0.251455 0.0132,0.139266 0.0373,0.269105 0.14073,0.371993 0.10597,0.124256 0.22436,0.255492 0.19566,0.430549 -0.11217,0.233905 -0.2326,0.19345 -0.42595,0.0614 0.10644,0.08825 0.20994,0.180168 0.31931,0.264758 0.0489,0.03781 -0.0841,-0.09142 -0.11729,-0.143557 -0.16342,-0.256816 -0.14394,-0.271466 -0.55812,-0.50953 -0.17751,-0.06965 -0.3653,-0.05252 -0.55293,-0.04196 -0.48568,0.0343 -0.96885,0.10423 -1.446,0.200867 0,0 0.39352,0.351599 0.39352,0.351599 z" />
    <path
       style="opacity:0.970184;fill:#2b0000;fill-opacity:0.998224;stroke-width:0.265112;stroke-opacity:0;paint-order:stroke fill markers"
       id="path1033"
       d="m 112.091,19.741512 c -0.71446,0.117165 -1.3014,-0.03667 -2.01728,-0.190318 -0.69411,-0.173495 -1.3697,-0.415916 -2.0233,-0.70609 -0.34932,-0.155088 -0.73549,-0.339529 -1.04994,-0.563976 -0.1195,-0.0853 -0.22246,-0.191668 -0.33369,-0.287502 -0.0604,-0.0937 -0.14267,-0.176498 -0.18122,-0.281104 -0.2283,-0.619402 0.8074,-1.017099 1.20173,-1.17985 0.50204,-0.121804 0.62534,-0.188533 1.16103,-0.16041 0.0646,0.0034 0.11913,0.05135 0.18113,0.06992 0.22117,0.06623 0.44511,0.122845 0.66767,0.184267 0,0 0.49423,-0.04116 0.49423,-0.04116 v 0 c -0.22252,-0.06375 -0.43919,-0.153451 -0.66756,-0.191243 -0.80742,-0.133616 -1.55941,-0.176212 -2.33839,0.07201 -0.44317,0.188089 -1.46141,0.576886 -1.21515,1.26017 0.0396,0.109797 0.12505,0.197102 0.18757,0.295653 0.11339,0.0985 0.2182,0.207844 0.34017,0.295497 0.31833,0.22877 0.70519,0.412886 1.05963,0.57096 0.65292,0.291184 1.32702,0.537113 2.01964,0.715631 0.99449,0.207843 2.01436,0.357647 3.03157,0.244812 0,0 -0.51784,-0.107262 -0.51784,-0.107262 z" />
    <path
       style="opacity:0.970184;fill:#2b0000;fill-opacity:0.998224;stroke-width:0.265112;stroke-opacity:0;paint-order:stroke fill markers"
       id="path1035"
       d="m 113.84107,20.134594 c 0.39113,-0.08666 0.78214,-0.209527 1.18371,-0.234406 0.19137,0.06224 0.33243,0.119197 -0.2824,-0.268334 -0.0166,-0.01046 -0.002,0.04005 -0.0107,0.05785 -0.0396,0.08582 -0.12447,0.158261 -0.18804,0.225403 -0.35341,0.409494 -0.10325,0.450056 0.31293,0.808815 0.28732,0.04811 0.57281,0.08494 0.84738,0.186684 0.28028,0.152375 0.48986,0.231335 0.81106,0.193412 0.2774,-0.04407 0.52613,-0.188798 0.80438,-0.224475 0.26626,0.04235 0.47419,0.266579 0.67649,0.429916 0.46251,0.396316 1.02633,0.56488 1.61003,0.687725 0.44807,0.09295 0.90223,0.150987 1.35241,0.231718 0.0538,0.0117 0.11529,0.0184 0.16489,0.03898 -0.13816,-0.107078 -0.25654,-0.246376 -0.4145,-0.321233 -0.0341,-0.01615 -0.0307,0.06917 -0.0407,0.10553 -0.0263,0.0962 -0.0485,0.193576 -0.068,0.291393 -0.14419,0.723697 -0.22793,1.456588 -0.31849,2.188304 -0.0376,0.328929 -0.0752,0.657858 -0.11272,0.986787 0,0 0.37065,0.303945 0.37065,0.303945 v 0 c 0.0383,-0.328001 0.0767,-0.656001 0.115,-0.984002 0.0993,-0.725298 0.18994,-1.451867 0.34717,-2.167567 0.0206,-0.09387 0.044,-0.187212 0.0712,-0.279389 0.0104,-0.03506 0.0599,-0.07017 0.0412,-0.101629 -0.0926,-0.156354 -0.23283,-0.279039 -0.34924,-0.418558 -0.0558,-0.0068 -0.11215,-0.02014 -0.16816,-0.02823 -0.44743,-0.0717 -0.89728,-0.129599 -1.34094,-0.223496 -0.57741,-0.138877 -1.13551,-0.314655 -1.59127,-0.714838 -0.20876,-0.168309 -0.4311,-0.409854 -0.71865,-0.399567 -0.27424,0.04829 -0.52336,0.184545 -0.80019,0.224615 -0.31424,0.02377 -0.51406,-0.07487 -0.78836,-0.214546 -0.27605,-0.09284 -0.56331,-0.120032 -0.84226,-0.196655 0.10576,0.1039 0.21152,0.207803 0.31728,0.311698 0.0152,0.01496 -0.0371,-0.02531 -0.0457,-0.04487 -0.009,-0.02079 -0.007,-0.04559 -0.004,-0.06794 0.0164,-0.09526 0.0873,-0.171577 0.14702,-0.241811 0.27167,-0.28715 0.53287,-0.627309 -0.26893,-0.756642 -0.40114,0.04007 -0.7904,0.158649 -1.18557,0.234348 0,0 0.36545,0.381065 0.36545,0.381065 z" />
    <path
       style="opacity:0.970184;fill:#2b0000;fill-opacity:0.998224;stroke-width:0.265112;stroke-opacity:0;paint-order:stroke fill markers"
       id="path1037"
       d="m 120.01034,26.218532 c -0.43111,0.03704 -0.86501,0.024 -1.29341,0.08777 -0.19675,0.04526 -0.39771,0.09222 -0.58042,0.18097 -0.0415,0.01751 -0.0849,0.03062 -0.12799,0.04388 -0.11736,0.07191 -0.18081,0.199196 -0.22965,0.322461 -0.0945,0.326429 -0.0475,0.645136 0.0692,0.957164 0.0463,0.214585 0.31073,0.349136 0.32276,0.566722 -0.13907,0.159213 -0.38749,0.178398 -0.58489,0.215032 -0.17708,0.03621 -0.3354,0.118009 -0.46037,0.248174 -0.1175,0.169434 -0.10712,0.409633 -0.13539,0.607099 -0.22745,1.701655 -0.44964,3.404066 -0.67726,5.105734 -0.0643,0.47035 -0.12851,0.940702 -0.19276,1.411054 0,0 0.43758,0.125752 0.43758,0.125752 v 0 c 0.0653,-0.47003 0.1307,-0.94006 0.19605,-1.410089 0.24508,-1.717755 0.48304,-3.436803 0.75225,-5.150961 0.0307,-0.186399 0.0229,-0.423215 0.1394,-0.580761 0.12549,-0.118546 0.28082,-0.187238 0.45045,-0.218128 0.21659,-0.0418 0.48732,-0.06348 0.60011,-0.279805 -0.003,-0.233992 -0.25071,-0.369498 -0.3255,-0.584996 -0.12047,-0.302855 -0.16421,-0.616164 -0.0687,-0.934043 0.0471,-0.109087 0.10692,-0.240807 0.22719,-0.284485 0.0437,-0.01471 0.0876,-0.02861 0.12854,-0.05033 0.1815,-0.07917 0.37419,-0.130844 0.56834,-0.16786 0.43037,-0.05702 0.86541,-0.04827 1.29787,-0.08302 0,0 -0.51337,-0.12733 -0.51337,-0.12733 z" />
    <path
       style="opacity:0.970184;fill:#2b0000;fill-opacity:0.998224;stroke-width:0.265112;stroke-opacity:0;paint-order:stroke fill markers"
       id="path1039"
       d="m 116.01228,37.726416 c -0.20085,1.274212 -0.25859,2.570297 -0.34607,3.856577 -0.1021,1.498917 -0.12638,3.001203 -0.14819,4.502901 0,0 0.45256,0.139997 0.45256,0.139997 v 0 c 0.0164,-1.510438 0.0446,-3.021426 0.15834,-4.528325 0.0967,-1.29381 0.16363,-2.600172 0.40352,-3.87681 0,0 -0.52016,-0.09434 -0.52016,-0.09434 z" />
    <path
       style="opacity:0.970184;fill:#2b0000;fill-opacity:0.998224;stroke-width:0.265112;stroke-opacity:0;paint-order:stroke fill markers"
       id="path1041"
       d="m 115.42346,45.884324 c -0.27518,0.210966 -0.59828,0.341966 -0.89405,0.519573 -0.2309,0.1787 -0.11807,0.08182 -0.33727,0.292039 0,0 0.45258,0.259194 0.45258,0.259194 v 0 c 0.22026,-0.210352 0.10711,-0.115237 0.3375,-0.287647 0.29965,-0.176107 0.62334,-0.311521 0.90175,-0.5226 0,0 -0.46051,-0.260559 -0.46051,-0.260559 z" />
    <path
       style="opacity:0.970184;fill:#2b0000;fill-opacity:0.998224;stroke-width:0.265112;stroke-opacity:0;paint-order:stroke fill markers"
       id="path1043"
       d="m 124.1362,27.278856 c 0.45199,1.117071 0.23122,2.304711 0.0561,3.455784 -0.37047,1.881185 -1.10468,3.652406 -1.8069,5.425755 0,0 0.34421,0.229227 0.34421,0.229227 v 0 c 0.71978,-1.782723 1.46835,-3.563107 1.88405,-5.448782 0.19837,-1.157224 0.45176,-2.354437 0.0232,-3.491746 0,0 -0.50069,-0.170238 -0.50069,-0.170238 z" />
    <path
       style="opacity:0.970184;fill:#2b0000;fill-opacity:0.998224;stroke-width:0.265112;stroke-opacity:0;paint-order:stroke fill markers"
       id="path1045"
       d="m 121.59023,37.77175 c -0.78081,1.581115 -1.59383,3.145951 -2.42169,4.702854 -1.45156,2.595563 -3.09869,5.093319 -5.08584,7.313578 -0.4438,0.495851 -0.9245,0.957385 -1.38675,1.436077 0,0 0.26544,0.32975 0.26544,0.32975 v 0 c 0.46036,-0.482563 0.93811,-0.949113 1.38107,-1.447686 1.99496,-2.245366 3.66256,-4.755671 5.16516,-7.350001 0.85505,-1.560608 1.69724,-3.128145 2.5278,-4.701934 0,0 -0.44519,-0.282638 -0.44519,-0.282638 z" />
    <path
       style="opacity:0.970184;fill:#2b0000;fill-opacity:0.998224;stroke-width:0.265112;stroke-opacity:0;paint-order:stroke fill markers"
       id="path1061"
       d="m 21.862908,49.818874 c -0.511334,-0.997778 -0.763352,-2.095553 -0.755283,-3.21188 0.08664,-1.113684 0.916951,-1.810475 1.537992,-2.650305 0.156845,-0.2121 0.295803,-0.436859 0.443705,-0.655288 0.801048,-1.349317 1.113371,-2.907038 0.843453,-4.460521 -0.04673,-0.268938 -0.139222,-0.527883 -0.208833,-0.791826 -0.555992,-1.087395 -0.738096,-0.832339 -2.090637,-1.015037 0,0 0.996078,0.323337 0.996078,0.323337 v 0 c -1.315252,-0.40445 -0.444194,-0.187405 -0.239713,0.03011 0.140926,0.149913 0.212749,0.35224 0.319123,0.528357 0.07265,0.258792 0.168322,0.512199 0.217944,0.776372 0.283797,1.510848 -0.03456,3.019711 -0.82295,4.326649 -0.148144,0.215326 -0.287757,0.436777 -0.444435,0.645975 -0.641343,0.856337 -1.47639,1.575417 -1.563338,2.715787 -0.01066,1.117632 0.246804,2.202706 0.73387,3.211817 0,0 1.033024,0.226451 1.033024,0.226451 z" />
    <path
       style="opacity:0.970184;fill:#2b0000;fill-opacity:0.998224;stroke-width:0.265112;stroke-opacity:0;paint-order:stroke fill markers"
       id="path1071"
       d="m 32.37348,40.900648 c -0.848638,-0.429024 -1.467305,-1.202174 -2.007206,-1.962359 -0.542161,-0.880083 -0.776378,-1.898483 -0.684356,-2.928754 0.01881,-0.210498 0.06358,-0.41786 0.09537,-0.62679 0.182478,-0.803069 0.579321,-1.505366 1.262396,-1.984984 0.310787,-0.218218 0.810958,-0.446003 1.146111,-0.610248 0.470784,-0.297066 0.728499,-0.364874 0.976522,-0.905582 0.352959,-0.769474 0.193243,-1.727303 -0.191659,-2.446816 -0.156784,-0.293082 -0.386908,-0.54057 -0.580361,-0.810858 -0.796502,-0.744363 -1.435299,-1.381829 -2.612387,-0.766262 -0.227195,0.118813 -0.309809,0.408598 -0.464715,0.612899 0,0 0.491729,-0.02101 0.491729,-0.02101 v 0 c 0.156628,-0.196302 0.300931,-0.403103 0.469881,-0.588904 0.0456,-0.05014 0.102793,-0.129008 0.168749,-0.113416 0.710416,0.167944 0.935397,0.489532 1.474221,0.958791 0.19122,0.263726 0.418923,0.504521 0.573659,0.791181 0.377671,0.699667 0.530556,1.637766 0.173789,2.382957 -0.244041,0.509735 -0.524629,0.59441 -0.975453,0.875093 -0.356724,0.176128 -0.823425,0.387202 -1.150697,0.62261 -0.684479,0.49235 -1.079055,1.208653 -1.260848,2.01999 -0.03184,0.208373 -0.07659,0.415177 -0.09553,0.625115 -0.09331,1.034445 0.143819,2.059681 0.683016,2.945834 0.533982,0.75904 1.14563,1.512771 1.981425,1.953578 0,0 0.526344,-0.02207 0.526344,-0.02207 z" />
    <path
       style="opacity:0.970184;fill:#2b0000;fill-opacity:0.998224;stroke-width:0.265112;stroke-opacity:0;paint-order:stroke fill markers"
       id="path1073"
       d="m 33.87554,41.197003 c 0.614217,-0.196792 0.98637,-0.719706 1.172448,-1.321655 0.06567,-0.212436 0.09398,-0.434668 0.140963,-0.652002 0.07043,-0.766559 -0.06399,-1.499351 -0.417963,-2.184818 -0.09499,-0.183941 -0.22666,-0.346485 -0.339989,-0.519726 0,0 -0.500005,-0.0094 -0.500005,-0.0094 v 0 c 0.115488,0.170141 0.249254,0.329216 0.346462,0.510421 0.358981,0.669171 0.492088,1.384353 0.418131,2.13823 -0.04834,0.213884 -0.07742,0.433052 -0.14501,0.641649 -0.189066,0.583465 -0.570235,1.075288 -1.177957,1.232596 0,0 0.50292,0.164762 0.50292,0.164762 z" />
    <path
       style="opacity:0.970184;fill:#2b0000;fill-opacity:0.998224;stroke-width:0.265112;stroke-opacity:0;paint-order:stroke fill markers"
       id="path1075"
       d="m 34.840023,42.505368 c 0.144275,0.22248 0.143603,0.441684 -0.03717,0.633206 -0.134327,0.136832 -0.171067,0.298008 -0.149747,0.483121 0.21194,0.651335 0.652796,1.221018 1.020845,1.787488 0,0 0.476348,-0.05679 0.476348,-0.05679 v 0 c -0.355931,-0.575022 -0.777851,-1.154102 -0.97508,-1.810676 -0.01791,-0.178517 0.0268,-0.319191 0.155528,-0.448554 0.174754,-0.218736 0.168949,-0.463367 0.02553,-0.703664 0,0 -0.516258,0.115869 -0.516258,0.115869 z" />
    <path
       style="opacity:0.970184;fill:#2b0000;fill-opacity:0.998224;stroke-width:0.265112;stroke-opacity:0;paint-order:stroke fill markers"
       id="path1077"
       d="m 36.005698,48.610617 c 0.811117,-0.712792 1.61975,-1.429229 2.429653,-2.143818 0,0 -0.373817,-0.323159 -0.373817,-0.323159 v 0 c -0.807775,0.713375 -1.61708,1.424326 -2.44675,2.112044 0,0 0.390914,0.354933 0.390914,0.354933 z" />
    <path
       style="opacity:0.970184;fill:#2b0000;fill-opacity:0.998224;stroke-width:0.265112;stroke-opacity:0;paint-order:stroke fill markers"
       id="path1079"
       d="m 39.022554,45.533428 c 0.326816,0.133171 0.581263,0.360707 0.54751,0.732341 -0.08511,0.195006 -0.103653,0.338537 -0.03194,0.540967 0.136676,0.313677 0.364218,0.575252 0.537752,0.867783 0.12105,0.20406 0.233982,0.412824 0.350976,0.619233 1.487024,2.82025 2.89983,5.678763 4.357441,8.5143 0,0 0.384797,0.01781 0.384797,0.01781 v 0 c -1.429949,-2.847906 -2.82864,-5.711031 -4.248582,-8.563856 -0.110622,-0.213378 -0.216397,-0.429342 -0.331866,-0.640138 -0.162378,-0.296431 -0.384424,-0.557429 -0.524423,-0.866037 -0.07157,-0.194744 -0.03784,-0.327173 0.0326,-0.518588 0.02564,-0.389509 -0.212179,-0.651137 -0.556728,-0.809265 0,0 -0.517538,0.105449 -0.517538,0.105449 z" />
    <path
       style="opacity:0.970184;fill:#2b0000;fill-opacity:0.998224;stroke-width:0.265112;stroke-opacity:0;paint-order:stroke fill markers"
       id="path1081"
       d="m 42.136358,46.578056 c -0.100565,-0.641643 0.04548,-1.295378 0.126252,-1.931471 0.150979,-1.444996 0.213698,-2.915955 -0.09054,-4.34767 -0.215501,-1.014138 -0.401725,-1.370902 -0.777682,-2.319293 -0.155893,-0.300262 -0.311788,-0.600525 -0.46768,-0.90079 0,0 -0.473393,-0.06627 -0.473393,-0.06627 v 0 c 0.159224,0.299138 0.31845,0.598278 0.477674,0.897419 0.400886,0.977852 0.557405,1.239922 0.784002,2.294048 0.302112,1.40543 0.249756,2.849957 0.07987,4.267568 -0.0892,0.629923 -0.239855,1.274564 -0.150963,1.912609 0,0 0.492458,0.193847 0.492458,0.193847 z" />
    <path
       style="opacity:0.970184;fill:#2b0000;fill-opacity:0.998224;stroke-width:0.265112;stroke-opacity:0;paint-order:stroke fill markers"
       id="path1085"
       d="m 45.691088,40.611594 c -1.338982,-2.109102 -2.606645,-4.263104 -3.89065,-6.405949 -1.346927,-2.288466 -0.699106,-1.167633 -1.946045,-3.361005 0,0 -0.425153,0.07592 -0.425153,0.07592 v 0 c 1.259938,2.188609 0.608478,1.070374 1.956154,3.353667 1.261581,2.11962 2.49754,4.254622 3.781759,6.36061 0,0 0.523935,-0.02326 0.523935,-0.02326 z" />
    <path
       style="opacity:0.970184;fill:#2b0000;fill-opacity:0.998224;stroke-width:0.265112;stroke-opacity:0;paint-order:stroke fill markers"
       id="path1087"
       d="m 47.199298,42.017804 c 0.430961,-0.220226 0.86106,-0.441272 1.283377,-0.677773 0.24733,-0.142081 0.49642,-0.280103 0.779378,-0.330755 0.256143,0.0028 0.356981,-0.0097 0.527055,-0.214797 0.176605,-0.243451 0.02784,-0.427225 -0.165922,-0.592272 -0.170654,-0.132369 -0.318043,-0.28793 -0.287563,-0.515684 0.09262,-0.194868 0.285647,-0.114713 0.43724,-0.04169 -0.127915,-0.05725 -0.253952,-0.118901 -0.383746,-0.171751 -0.201049,-0.08186 0.16379,0.105666 0.201157,0.123179 0.174845,0.08195 0.347374,0.169781 0.52736,0.239718 0.01765,0.0069 0.03677,-0.0089 0.05516,-0.01336 0.220303,-0.154647 0.231521,-0.484796 0.269184,-0.72507 0.162254,-2.015924 -0.0088,-4.041259 -0.490013,-6.005785 -0.144161,-0.588531 -0.334767,-1.164704 -0.50215,-1.747057 -0.569921,-1.507897 -0.621906,-1.765787 -1.326118,-3.176794 -0.211998,-0.424772 -0.453626,-0.834104 -0.68044,-1.251153 0,0 -0.453453,-0.04106 -0.453453,-0.04106 v 0 c 0.23128,0.414179 0.478099,0.820055 0.693838,1.242539 0.714957,1.400112 0.765106,1.657075 1.337847,3.157329 0.166708,0.576371 0.357854,1.146233 0.500123,1.729118 0.470424,1.927349 0.63994,3.926448 0.436658,5.901346 -0.03233,0.186137 -0.03785,0.543441 -0.241279,0.64263 -0.197498,-0.02498 -0.07156,-0.01365 0.382357,0.198107 0.04395,0.0205 -0.08402,-0.04851 -0.124925,-0.07457 -0.258604,-0.164756 -0.01498,-0.0195 -0.64076,-0.32159 -0.191455,-0.07474 -0.388483,-0.0931 -0.484402,0.126119 -0.04129,0.246147 0.07863,0.41693 0.273121,0.559739 0.174154,0.139364 0.371266,0.277429 0.201729,0.507241 -0.159612,0.178641 -0.282681,0.167425 -0.509857,0.184163 -0.282834,0.06209 -0.53253,0.20402 -0.781384,0.348369 -0.422208,0.228544 -0.845624,0.454218 -1.279916,0.659233 0,0 0.446344,0.282345 0.446344,0.282345 z" />
    <path
       style="opacity:0.970184;fill:#2b0000;fill-opacity:0.998224;stroke-width:0.265112;stroke-opacity:0;paint-order:stroke fill markers"
       id="path1089"
       d="m 47.798749,26.373351 c 0.745931,1.674122 1.676077,3.257918 2.59961,4.838081 1.374569,2.232695 0.660152,1.093547 2.14625,3.415567 0,0 0.410546,-0.06882 0.410546,-0.06882 v 0 C 51.48142,32.212153 52.187953,33.36154 50.832154,31.1121 49.92099,29.509638 49.000616,27.90041 48.294559,26.194183 c 0,0 -0.49581,0.179168 -0.49581,0.179168 z" />
    <path
       style="opacity:0.970184;fill:#2b0000;fill-opacity:0.998224;stroke-width:0.265112;stroke-opacity:0;paint-order:stroke fill markers"
       id="path1093"
       d="m 170.06436,57.578362 c 0.66048,-0.004 1.29304,-0.174603 1.74088,-0.677486 0.31057,-0.6696 -0.59143,-1.071462 -1.16904,-1.197764 -0.5885,-0.172871 0.51351,0.669108 0.9672,0.606319 0.11292,-0.02355 0.232,-0.01558 0.33936,-0.05773 0.58366,-0.446315 0.76284,-1.322343 0.9496,-1.983928 0.11095,-0.913786 0.23532,-1.615871 0.16573,-2.557584 -0.15279,-2.067597 -0.81932,-4.13467 -1.65918,-6.017141 -0.30147,-0.675727 -0.67438,-1.317263 -1.01157,-1.975895 -0.40398,-0.557803 -0.80796,-1.115605 -1.21194,-1.673405 0,0 -0.92064,-0.251576 -0.92064,-0.251576 v 0 c 0.40931,0.549447 0.81861,1.098896 1.22792,1.648346 0.34038,0.650735 0.71571,1.284353 1.02114,1.952207 0.84327,1.843873 1.51102,3.859424 1.65821,5.894104 0.0687,0.950278 -0.0537,1.574292 -0.17337,2.488158 -0.17417,0.605139 -0.34086,1.464246 -0.90625,1.84759 -0.1091,0.01685 -0.21891,0.02928 -0.32823,0.04459 -0.61931,0.05901 0.33941,0.660128 0.71428,0.698423 0.38397,0.143778 0.0764,0.03506 -0.71166,-0.461875 -0.0341,-0.02151 0.0745,0.03298 0.10624,0.05782 0.13761,0.107614 0.11986,0.234852 0.048,0.379018 -0.43536,0.484675 -1.06479,0.606457 -1.6959,0.607081 0,0 0.84926,0.630735 0.84926,0.630735 z" />
    <path
       style="opacity:0.970184;fill:#2b0000;fill-opacity:0.998224;stroke-width:0.265112;stroke-opacity:0;paint-order:stroke fill markers"
       id="path1095"
       d="m 171.45486,43.260187 c -1.48633,-2.730455 -2.87019,-5.530469 -3.94406,-8.452006 -0.27472,-0.747406 -0.50568,-1.510181 -0.75852,-2.26527 -0.283,-1.149493 -0.79014,-2.765176 -0.69482,-3.999069 0.13511,-1.748872 1.17551,-2.906786 2.99742,-2.785089 0.30063,0.02008 0.54229,0.262775 0.81344,0.394162 0.58968,0.390839 1.17937,0.781679 1.76906,1.172516 0,0 0.94978,0.0412 0.94978,0.0412 v 0 c -0.58418,-0.4055 -1.16835,-0.811001 -1.75252,-1.216503 -1.37893,-0.327513 -2.84236,-1.078684 -4.25482,-0.338525 -2.40079,1.258065 -1.26419,4.735074 -0.76156,6.659989 0.25488,0.746781 0.49054,1.500399 0.76463,2.240343 1.06474,2.874439 2.41149,5.638459 3.8464,8.343538 0,0 1.02557,0.204716 1.02557,0.204716 z" />
    <path
       style="opacity:0.970184;fill:#2b0000;fill-opacity:0.998224;stroke-width:0.265112;stroke-opacity:0;paint-order:stroke fill markers"
       id="path1097"
       d="m 177.35016,44.359676 c 0.0705,-0.832025 0.0822,-1.662001 -0.13791,-2.471896 -0.15799,-0.468149 -0.51114,-0.812676 -0.80265,-1.197486 -0.26556,-0.436917 -0.54257,-0.868876 -0.79194,-1.31563 -0.19831,-0.45371 -0.40438,-0.924533 -0.44896,-1.422918 0.003,-0.421754 0.34525,-0.61081 0.66998,-0.800439 0.39791,-0.21377 0.74064,-0.51172 1.1179,-0.757267 0.23325,-0.137811 0.48449,-0.244139 0.74309,-0.323514 0.99976,-0.329856 2.02366,-0.412583 3.06947,-0.454289 1.98016,-0.100973 3.57367,-0.542367 4.76566,-2.28871 0.86989,-1.274447 0.94721,-2.117251 1.32122,-3.580301 -0.0106,-0.624327 0.0821,-1.259044 -0.0318,-1.872981 -0.2545,-1.371528 -1.20479,-3.097351 -2.79596,-3.187311 -0.7064,-0.03994 -1.50069,-0.138292 -2.11122,0.219263 -0.49552,0.290202 -0.55706,1.004353 -0.83558,1.506529 0,0 0.93455,0.276083 0.93455,0.276083 v 0 c 0.2816,-0.482864 0.60072,-0.94572 0.8448,-1.448591 0.0974,-0.200572 -0.046,-0.59983 0.17203,-0.646346 0.40693,-0.08681 0.84986,0.124792 1.19692,0.354303 0.86111,0.569454 1.4607,1.749482 1.65141,2.717325 0.11827,0.600228 0.0302,1.223163 0.0454,1.834745 -0.37109,1.444038 -0.43983,2.267222 -1.3172,3.512367 -1.1925,1.692373 -2.83054,2.088923 -4.76305,2.17536 -1.06789,0.05862 -2.12396,0.137295 -3.13686,0.508455 -0.26821,0.09152 -0.52375,0.208642 -0.7599,0.366998 -0.36957,0.253148 -0.7197,0.534281 -1.11204,0.753576 -0.35682,0.217498 -0.69634,0.45448 -0.70516,0.912881 0.0373,0.507592 0.24599,0.99155 0.45168,1.450895 0.24076,0.450279 0.52197,0.877674 0.78807,1.313331 0.2739,0.37796 0.64547,0.687605 0.82413,1.128784 0.23695,0.783482 0.22822,1.593197 0.15155,2.403197 0,0 1.00244,0.333587 1.00244,0.333587 z" />
    <path
       style="opacity:0.970184;fill:#2b0000;fill-opacity:0.998224;stroke-width:0.265112;stroke-opacity:0;paint-order:stroke fill markers"
       id="path1099"
       d="m 183.99301,37.262165 c -0.0707,0.151635 -0.15918,0.296211 -0.21224,0.454903 -0.27323,0.81733 -0.45033,1.851411 -0.60232,2.662574 -0.30771,1.642152 -0.59338,3.288363 -0.89274,4.932058 0,0 0.86574,0.313788 0.86574,0.313788 v 0 c 0.26881,-1.420006 0.6583,-3.514802 0.95689,-4.955345 0.17604,-0.849254 0.36618,-1.829458 0.67281,-2.664478 0.0576,-0.156758 0.15086,-0.297971 0.22629,-0.446955 0,0 -1.01443,-0.296545 -1.01443,-0.296545 z" />
    <path
       style="opacity:0.970184;fill:#2b0000;fill-opacity:0.998224;stroke-width:0.265112;stroke-opacity:0;paint-order:stroke fill markers"
       id="path1101"
       d="m 182.59957,50.752697 c 0.91842,-0.457147 1.93348,-0.785511 2.97472,-0.67864 0.24421,0.02506 0.48141,0.09645 0.72212,0.144677 -0.0729,0.0011 -0.26542,-0.0528 -0.2186,0.003 1.53871,1.835322 -0.0597,-0.799031 1.43202,1.531448 0.45612,0.712595 0.87245,1.621645 1.1094,2.429928 0.14942,0.50967 0.22769,1.037551 0.34153,1.556327 0.26536,2.67539 -0.0123,5.374394 -0.62174,7.986202 -0.34256,1.468199 -0.54625,1.969825 -1.01614,3.367892 0,0 0.84736,0.483528 0.84736,0.483528 v 0 c 0.46128,-1.395727 0.67257,-1.935294 1.01388,-3.399414 0.61388,-2.633316 0.90653,-5.354135 0.6777,-8.054067 -0.1047,-0.531448 -0.17187,-1.071685 -0.31409,-1.59434 -0.21679,-0.796655 -0.64332,-1.772311 -1.07685,-2.481818 -0.25182,-0.412112 -0.92641,-1.336881 -1.39347,-1.605034 -0.52906,-0.303752 -1.12555,-0.471003 -1.68832,-0.706506 -0.24649,-0.03761 -0.49058,-0.09778 -0.73946,-0.11284 -1.05868,-0.06407 -2.07745,0.283454 -3.02276,0.721263 0,0 0.9727,0.40835 0.9727,0.40835 z" />
    <path
       style="opacity:0.970184;fill:#2b0000;fill-opacity:0.998224;stroke-width:0.265112;stroke-opacity:0;paint-order:stroke fill markers"
       id="path1103"
       d="m 187.33902,69.313644 c -0.43677,1.086673 -0.69942,2.208874 -0.62531,3.380875 0.3855,1.533204 1.61884,1.978784 2.93159,2.608135 0.17249,-0.01744 0.35116,-0.0033 0.51746,-0.05234 1.29939,-0.382815 2.16177,-2.172457 2.70989,-3.277248 0,0 -0.88959,-0.487733 -0.88959,-0.487733 v 0 c -0.52057,1.057979 -1.37564,2.845022 -2.65722,3.146232 -0.16093,0.03782 -0.33028,0.01527 -0.49542,0.02289 0.13619,0.127048 0.47567,0.207402 0.40857,0.381143 -0.063,0.163232 -0.31197,-0.161335 -0.45397,-0.263597 -0.55183,-0.397425 -0.96867,-0.955196 -1.14242,-1.612754 -0.0998,-1.171242 0.18041,-2.296882 0.63964,-3.373308 0,0 -0.94322,-0.472297 -0.94322,-0.472297 z" />
    <path
       style="opacity:0.970184;fill:#2b0000;fill-opacity:0.998224;stroke-width:0.265112;stroke-opacity:0;paint-order:stroke fill markers"
       id="path1111"
       d="m 144.08468,27.507342 c -1.38769,-0.0042 -2.74406,-0.361783 -4.06696,-0.748442 -0.92893,-0.314312 -2.04885,-0.623642 -2.50502,-1.576776 -0.0533,-0.313758 0.0219,-0.577631 0.28196,-0.78227 0.3574,-0.281264 0.86495,-0.338303 0.78746,-0.358914 -0.16923,-0.04501 -0.33735,0.0941 -0.50602,0.141147 1.00087,-0.199903 1.98327,0.001 2.95938,0.218627 1.67221,0.426454 2.71436,0.111029 4.36856,-0.322441 1.40768,-0.796698 1.25003,-1.98109 0.9256,-3.370558 -0.26883,-0.808932 -0.69135,-1.537502 -1.33588,-2.108079 -0.22012,-0.194857 -0.47767,-0.342795 -0.71651,-0.514193 0,0 -0.94258,0.391089 -0.94258,0.391089 v 0 c 0.23601,0.165219 0.48878,0.308768 0.70803,0.495657 0.63278,0.539389 1.04077,1.230808 1.29838,2.013354 0.30701,1.341405 0.44139,2.468715 -0.97123,3.158839 0.14814,-0.0083 0.5729,-0.09895 0.44442,-0.02475 -0.17428,0.100649 -0.39355,0.08801 -0.59351,0.110844 -0.74301,0.08487 -1.4843,-0.03212 -2.20803,-0.192002 -0.9813,-0.22072 -1.96724,-0.441073 -2.97752,-0.261022 -0.63161,0.155396 -2.48058,0.304088 -2.56903,1.366804 -0.009,0.104241 0.0213,0.208113 0.032,0.312169 0.48138,1.015898 1.56406,1.313658 2.55527,1.653354 1.32178,0.365855 2.66506,0.739288 4.0449,0.770551 0,0 0.98635,-0.372991 0.98635,-0.372991 z" />
    <path
       style="opacity:0.970184;fill:#2b0000;fill-opacity:0.998224;stroke-width:0.265112;stroke-opacity:0;paint-order:stroke fill markers"
       id="path1119"
       d="m 143.5268,28.488105 c 0.44182,-0.235752 0.88151,-0.474252 1.33272,-0.691795 0,0 -0.077,-0.152162 -0.077,-0.152162 v 0 c -0.44548,0.215339 -0.88053,0.450532 -1.32377,0.670174 0,0 0.0681,0.173783 0.0681,0.173783 z" />
    <path
       style="opacity:0.970184;fill:#2b0000;fill-opacity:0.998224;stroke-width:0.265112;stroke-opacity:0;paint-order:stroke fill markers"
       id="path1121"
       d="m 144.36215,28.452005 c 0.13069,-0.08852 0.26194,-0.176138 0.39092,-0.267163 0.0806,-0.05536 0.16002,-0.113469 0.24637,-0.159736 0.0446,-0.02336 0.0865,-0.02877 0.13357,-0.01151 -0.006,-0.0503 0.0779,0.111551 0.0653,0.08565 -0.0186,-0.03825 -0.03,-0.08073 -0.0553,-0.114951 -0.0129,-0.01749 0.0104,0.04221 0.0169,0.06292 0.007,0.02151 0.0153,0.04242 0.0229,0.06363 0.0366,0.07479 0.0659,0.153691 0.10992,0.224377 0.0557,0.08935 0.23354,0.07954 0.31929,0.05749 0.0604,0.0026 0.0765,-0.08438 0.12769,-0.0852 0.17802,0.03175 0.35413,0.07352 0.53021,0.114543 0.27243,0.06231 0.54441,0.126503 0.81611,0.19191 0.003,0.0041 0.18824,0.03796 0.17005,0.05343 -0.0263,-0.05183 -0.0448,-0.108426 -0.0789,-0.15549 -0.006,-0.0082 -0.009,0.0181 -0.0142,0.02702 -0.01,0.01736 -0.0194,0.03454 -0.0291,0.05175 -0.02,0.03533 -0.0407,0.07032 -0.0604,0.105873 -0.1268,0.229113 -0.12241,0.226713 -0.259,0.493522 -0.0629,0.131021 -0.12578,0.262046 -0.18867,0.39307 0,0 0.0726,0.147913 0.0726,0.147913 v 0 c 0.0644,-0.129673 0.12882,-0.259345 0.19323,-0.389017 0.10625,-0.198057 0.21222,-0.39433 0.32817,-0.586751 0.0102,-0.01688 0.0205,-0.03362 0.0305,-0.05064 0.005,-0.0088 0.0166,-0.01672 0.0146,-0.02664 -0.0135,-0.06581 -0.0396,-0.128376 -0.0595,-0.192561 -0.0606,-1.51e-4 -0.12155,-0.04545 -0.18286,-0.04349 -0.27211,-0.06207 -0.54368,-0.126444 -0.81542,-0.190095 -0.1777,-0.04224 -0.35537,-0.08801 -0.53524,-0.119348 -0.0635,0.0091 -0.0636,0.07229 -0.12981,0.08795 -0.0823,0.02125 -0.17009,0.02638 -0.24651,-0.02022 -0.0191,-0.01167 -0.0459,-0.06578 -0.0508,-0.04394 -0.009,0.03824 0.0237,0.07473 0.0355,0.112096 -0.0572,-0.145955 -0.0652,-0.348483 -0.21078,-0.431144 -0.0524,-0.01439 -0.0992,-0.0087 -0.14751,0.0173 -0.0856,0.04747 -0.16437,0.106183 -0.24481,0.161637 -0.12679,0.09051 -0.2553,0.17853 -0.38637,0.262763 0,0 0.0713,0.173026 0.0713,0.173026 z" />
    <path
       style="opacity:0.970184;fill:#2b0000;fill-opacity:0.998224;stroke-width:0.265112;stroke-opacity:0;paint-order:stroke fill markers"
       id="path1123"
       d="m 136.05213,25.605158 c -0.0587,-0.176687 -0.0471,-0.359368 -0.0221,-0.540621 0.0455,-0.238911 0.14179,-0.46491 0.28101,-0.664357 0.0334,-0.04791 0.0708,-0.09298 0.10617,-0.139476 0.22533,-0.263541 0.48776,-0.498048 0.78299,-0.681212 0.072,-0.04467 0.14747,-0.08352 0.22121,-0.125285 0.40601,-0.205583 0.8522,-0.318051 1.30393,-0.3627 0.0923,-0.0091 0.18503,-0.01234 0.27754,-0.0185 0.6215,-0.01153 1.24085,0.06202 1.85834,0.123431 0.61096,0.05389 1.21944,0.136462 1.83106,0.183145 0.12203,0.0093 0.24431,0.01505 0.36648,0.02258 0.48933,0.01181 0.98815,-0.03707 1.41949,-0.289417 0.27723,-0.162194 0.30663,-0.228248 0.51841,-0.459176 0.055,-0.09567 0.12119,-0.18573 0.16505,-0.286997 0.13745,-0.317379 0.14378,-0.669704 0.0275,-0.995259 -0.11681,-0.327134 -0.23005,-0.42369 -0.44523,-0.700276 -0.91227,-0.933692 -2.12317,-1.460979 -3.23852,-2.100252 -0.3226,-0.184905 -0.6392,-0.380107 -0.95879,-0.570161 -0.31264,-0.215618 -0.63102,-0.423135 -0.93792,-0.646854 -0.91037,-0.663641 -1.799,-1.387068 -2.51369,-2.265245 -0.64177,-0.788563 -0.65509,-0.929284 -1.1039,-1.815067 -0.12707,-0.450719 -0.40964,-1.094524 -0.20975,-1.597446 0.0685,-0.172378 0.22708,-0.323606 0.4023,-0.384495 0.21488,-0.07467 0.46058,-0.04283 0.68242,0.0076 0.6455,0.146614 1.06156,0.486908 1.60169,0.838068 1.13558,1.095712 0.60477,0.489335 1.57635,1.833085 0,0 0.0588,0.02222 0.0588,0.02222 v 0 c -0.96201,-1.343005 -0.43656,-0.736285 -1.56017,-1.83405 -0.54102,-0.335233 -1.11618,-0.764529 -1.75951,-0.906559 -0.2258,-0.04985 -0.47621,-0.07967 -0.69371,-0.0011 -0.17538,0.06332 -0.33037,0.220312 -0.39637,0.394698 -0.19036,0.502996 0.097,1.157259 0.22563,1.604607 0.45017,0.881676 0.46759,1.029088 1.10906,1.812885 0.71676,0.875788 1.60996,1.600311 2.52063,2.262778 0.34374,0.250056 0.69938,0.483328 1.04907,0.724992 0.32075,0.191642 0.63845,0.38847 0.96224,0.574925 0.54803,0.315592 1.12361,0.606467 1.668,0.929657 0.29887,0.177432 0.75723,0.466458 1.04107,0.702255 0.13405,0.111359 0.25465,0.237969 0.38198,0.356954 0.2142,0.271998 0.32759,0.36823 0.44561,0.690498 0.1175,0.320826 0.11433,0.668976 -0.0197,0.983586 -0.0427,0.100281 -0.10774,0.189533 -0.16162,0.284299 -0.20914,0.229094 -0.23759,0.294641 -0.51174,0.454357 -0.42963,0.250291 -0.92678,0.29775 -1.41355,0.285121 -0.73555,-0.04543 -1.46711,-0.134417 -2.20059,-0.204481 -0.6199,-0.06056 -1.24124,-0.137458 -1.86521,-0.122845 -0.0927,0.0063 -0.1857,0.0095 -0.27814,0.019 -0.45397,0.04651 -0.90235,0.161432 -1.31063,0.367491 -0.0746,0.04229 -0.15086,0.08179 -0.22382,0.126859 -0.29691,0.183409 -0.56161,0.417164 -0.78831,0.681756 -0.0358,0.04662 -0.0734,0.09185 -0.10732,0.139874 -0.1409,0.199755 -0.23832,0.42566 -0.28469,0.665713 -0.0264,0.180503 -0.0397,0.361433 0.0165,0.538275 0,0 0.10449,0.08122 0.10449,0.08122 z" />
  </g>
</svg>
